<svg width="1500" height="1500" viewBox="0 0 1500 1500" fill="none" xmlns="http://www.w3.org/2000/svg">
<g clip-path="url(#clip0_2609_221)">
<path d="M197.685 873.064C197.685 873.064 207.709 779.58 271.586 809.653C271.586 809.653 289.537 818.279 279.746 845.788C268.322 877.96 273.918 892.181 291.402 924.119C309.12 956.058 325.439 1010.84 328.003 1065.16C330.568 1119.25 377.893 1180.09 377.893 1180.09L391.414 1167.74L507.512 1319.04C507.512 1319.04 437.341 1439.8 352.715 1420.22C268.089 1400.63 220.298 1330.46 211.206 1237.91C202.114 1145.36 134.973 1055.6 130.077 1031.59C124.948 1007.58 197.685 873.064 197.685 873.064Z" fill="url(#paint0_linear_2609_221)"/>
<path d="M381.856 1175.9C389.316 1197.35 467.414 1343.75 333.599 1414.39C339.66 1416.49 345.954 1418.35 352.482 1419.98C437.108 1439.57 507.279 1318.81 507.279 1318.81L391.181 1167.27L381.856 1175.9Z" fill="url(#paint1_linear_2609_221)"/>
<path d="M584.678 885.184C584.678 885.184 513.341 901.736 495.156 970.509C480.703 1024.83 454.359 1126.24 377.66 1150.72C377.66 1150.72 429.88 1274.28 533.39 1356.8C533.39 1356.8 595.868 1308.08 629.905 1269.85L584.678 885.184Z" fill="url(#paint2_linear_2609_221)"/>
<path d="M570.69 1326.27C483.5 1257.73 433.144 1157.95 418.923 1126.94C407.034 1137.43 393.512 1145.59 377.66 1150.72C377.66 1150.72 429.88 1274.28 533.39 1356.81C533.39 1356.81 549.942 1343.98 570.69 1326.27Z" fill="url(#paint3_linear_2609_221)"/>
<path opacity="0.3" d="M629.905 1269.85L610.322 1102.69C593.77 1081.24 581.881 1066.32 581.881 1066.32C581.881 1066.32 592.604 1202.94 507.279 1233.48C468.347 1247.47 438.04 1237.44 416.359 1222.52C442.47 1263.55 481.402 1315.31 533.39 1356.8C533.39 1356.8 595.868 1308.08 629.905 1269.85Z" fill="url(#paint4_linear_2609_221)"/>
<path d="M1200.37 1337.69C1200.37 1337.69 1294.32 1490.62 1176.82 1562.89C1176.82 1562.89 1222.52 1679.46 1068.42 1684.82L1011.77 1492.96L1200.37 1337.69Z" fill="url(#paint5_linear_2609_221)"/>
<path d="M1181.02 1353.54L1176.36 1363.57C1176.36 1363.57 1240.24 1499.25 1123.9 1537.48C1123.9 1537.48 1157.24 1610.22 1077.28 1625.14L1062.59 1664.54L1068.65 1684.82C1222.75 1679.69 1177.06 1562.89 1177.06 1562.89C1294.32 1490.62 1200.6 1337.69 1200.6 1337.69L1181.02 1353.54Z" fill="url(#paint6_linear_2609_221)"/>
<path d="M584.678 885.186C584.678 885.186 546.445 1023.2 503.316 1093.6C503.316 1093.6 676.997 1306.22 564.629 1567.32C564.629 1567.32 793.095 1705.57 1081.47 1555.66L996.849 1244.9C996.849 1244.9 1094.76 1201.77 1169.13 1093.6C1169.13 1093.6 951.622 849.051 902.432 752.07L802.42 727.824L630.138 806.155L584.678 885.186Z" fill="url(#paint7_linear_2609_221)"/>
<path opacity="0.3" d="M1168.9 1093.6C1168.9 1093.6 951.389 849.049 902.199 752.068L855.806 740.645L756.494 786.804C756.494 786.804 860.935 795.896 907.794 896.374C953.254 993.356 951.156 1117.38 1121.57 1151.42C1137.89 1134.86 1153.98 1115.52 1168.9 1093.6Z" fill="url(#paint8_linear_2609_221)"/>
<path d="M228.457 950.462C239.648 982.168 224.494 996.855 214.936 1002.45C210.973 1004.78 207.942 1005.71 207.942 1005.71C212.838 1013.17 214.003 1020.87 213.537 1027.39C213.071 1036.72 208.175 1045.35 200.715 1050.94C182.065 1065.16 164.813 1061.66 152.924 1055.37C142.899 1050.01 135.206 1041.62 129.844 1031.59C101.402 977.505 93.2429 862.806 163.181 856.744C258.997 848.352 228.457 950.462 228.457 950.462Z" fill="url(#paint9_linear_2609_221)"/>
<path d="M231.255 937.878C209.574 903.841 171.108 908.271 171.108 908.271C212.138 913.866 228.457 950.467 228.457 950.467C228.457 950.467 230.089 945.571 231.255 937.878Z" fill="#F07430"/>
<path d="M214.936 1002.46C210.973 1004.79 207.942 1005.72 207.942 1005.72C207.942 1005.72 192.322 983.575 167.844 973.551C168.077 973.551 195.819 977.98 214.936 1002.46Z" fill="#F07430"/>
<path d="M1057.46 1567.56C1012.24 1536.55 971.904 1510.21 971.904 1510.21C764.653 1586.44 648.555 1471.74 602.163 1406.46C600.064 1456.82 589.107 1510.91 564.862 1567.32C564.862 1567.32 780.506 1698.11 1057.46 1567.56Z" fill="url(#paint10_linear_2609_221)"/>
<path d="M996.849 1244.9C996.849 1244.9 1094.76 1201.77 1169.13 1093.6C1169.13 1093.6 1154.21 1076.81 1131.13 1050C1046.04 1164.47 937.402 1217.62 937.402 1217.62L990.555 1290.59L1006.64 1279.87L996.849 1244.9Z" fill="url(#paint11_linear_2609_221)"/>
<path d="M801.721 1056.54C801.721 1056.54 850.678 1312.04 1045.81 1424.65L996.849 1245.14C996.849 1244.9 923.647 1211.8 801.721 1056.54Z" fill="url(#paint12_linear_2609_221)"/>
<path d="M902.432 752.073L841.12 737.152L721.291 764.428L629.905 805.925L584.678 885.189C584.678 885.189 581.414 896.612 576.052 914.33C591.206 921.324 655.316 931.815 709.169 910.367C780.506 881.925 857.672 791.471 924.113 788.674C915.021 775.152 907.794 762.796 902.432 752.073Z" fill="url(#paint13_linear_2609_221)"/>
<path d="M609.156 341.533C609.156 341.533 974.702 219.141 1227.88 0C1227.88 0 1234.41 328.944 878.187 379.766H632.702L609.156 341.533Z" fill="url(#paint14_linear_2609_221)"/>
<path d="M584.678 791.239C584.678 791.239 599.365 846.025 584.678 885.19C584.678 885.19 651.586 895.681 710.801 860.012C770.015 824.344 821.304 755.571 902.199 752.074L871.659 702.417C871.659 702.417 899.402 700.786 915.254 679.804C915.254 679.804 824.8 657.191 825.733 503.093C825.733 503.093 1102.46 723.166 1391.3 476.05C1391.3 476.05 942.064 376.037 794.494 343.866C627.341 307.265 453.427 366.479 409.832 481.412C369.733 587.019 339.66 646.7 283.243 707.313C273.218 718.037 271.353 733.89 278.347 746.712C304.224 792.638 383.022 882.16 584.678 791.239Z" fill="url(#paint15_linear_2609_221)"/>
<path d="M675.132 752.305L584.678 791.237C584.678 791.237 594.003 825.74 590.506 859.777C663.942 848.354 675.132 752.305 675.132 752.305Z" fill="#F87C38"/>
<path d="M496.788 886.354C491.426 886.354 486.531 882.624 485.132 877.262C483.5 870.735 487.463 864.207 493.758 862.575L616.85 831.569C671.868 817.815 716.629 775.385 733.414 721.299L751.598 663.017C753.463 656.723 760.224 653.226 766.751 655.091C773.046 656.956 776.543 663.717 774.678 670.244L756.494 728.526C737.144 790.772 685.856 839.262 622.911 855.115L499.819 885.888C498.653 886.121 497.721 886.354 496.788 886.354Z" fill="url(#paint16_linear_2609_221)"/>
<path d="M542.948 887.285L472.776 904.537C460.187 907.568 447.365 899.874 444.101 887.285C441.071 874.696 448.764 861.874 461.353 858.611L531.525 841.359C544.114 838.328 556.936 846.022 560.2 858.611C563.463 871.433 555.77 884.255 542.948 887.285Z" fill="url(#paint17_linear_2609_221)"/>
<path d="M379.758 492.834L397.709 477.215C397.709 477.215 551.807 570.233 701.942 518.479L709.168 593.546H440.371L379.758 492.834Z" fill="url(#paint18_linear_2609_221)"/>
<path d="M1391.3 476.284C1391.3 476.284 1328.59 462.296 1242.57 443.18C1221.35 478.382 1150.48 569.069 979.365 576.995C1086.37 607.069 1236.97 608.235 1391.3 476.284Z" fill="#F87C38"/>
<path d="M1227.65 0C1189.18 33.3374 1148.15 64.3435 1106.19 93.2514C1104.32 143.141 1092.43 256.208 1025.76 335.006C1232.31 229.632 1227.65 0 1227.65 0Z" fill="#F87C38"/>
<path opacity="0.3" d="M457.856 412.635C462.985 409.138 594.702 318.918 785.868 366.709C913.622 398.648 1162.14 478.611 1317.87 529.666C1342.11 514.979 1366.82 497.261 1391.3 476.279C1391.3 476.279 942.064 376.267 794.494 344.096C665.107 315.887 531.758 344.795 457.856 412.635Z" fill="#FFCA83"/>
<path opacity="0.3" d="M695.88 308.895C695.88 308.895 1002.44 244.319 1214.36 94.4171C1228.58 40.0981 1227.65 0 1227.65 0C1050.94 153.165 819.438 259.006 695.88 308.895Z" fill="#FFCA83"/>
<path d="M750.432 609.403C750.432 609.403 654.383 712.679 539.684 715.243C521.5 715.709 505.88 713.844 492.126 710.581C482.334 708.249 473.476 705.219 465.316 701.722C452.261 695.894 441.537 688.667 432.212 680.973C404.47 658.127 390.948 631.55 375.328 628.986C373.463 628.753 371.598 628.519 369.733 628.519C344.555 627.587 331.267 647.403 331.267 647.403C321.243 546.691 379.991 492.605 379.991 492.605C405.402 511.489 431.512 525.243 457.39 535.035C486.997 546.225 516.138 552.52 543.414 555.55C563.929 557.881 583.279 558.115 600.764 557.648C613.12 557.182 624.543 556.25 634.567 554.851C665.34 551.121 684.457 545.293 684.457 545.293L750.432 609.403Z" fill="url(#paint19_linear_2609_221)"/>
<path d="M663.242 623.152C532.923 731.091 418.457 668.612 418.224 668.379C441.537 691.692 476.273 716.637 539.451 715.238C617.316 713.373 686.555 665.349 722.923 634.809L663.242 623.152Z" fill="url(#paint20_linear_2609_221)"/>
<path d="M750.665 695.42C803.197 695.42 845.782 652.835 845.782 600.304C845.782 547.773 803.197 505.188 750.665 505.188C698.134 505.188 655.549 547.773 655.549 600.304C655.549 652.835 698.134 695.42 750.665 695.42Z" fill="url(#paint21_linear_2609_221)"/>
<path d="M759.758 670.244C798.384 670.244 829.696 638.932 829.696 600.306C829.696 561.68 798.384 530.367 759.758 530.367C721.132 530.367 689.819 561.68 689.819 600.306C689.819 638.932 721.132 670.244 759.758 670.244Z" fill="url(#paint22_linear_2609_221)"/>
<path d="M759.757 637.137C780.1 637.137 796.592 620.646 796.592 600.303C796.592 579.96 780.1 563.469 759.757 563.469C739.414 563.469 722.923 579.96 722.923 600.303C722.923 620.646 739.414 637.137 759.757 637.137Z" fill="url(#paint23_linear_2609_221)"/>
<path d="M828.297 443.18C826.199 456.235 825.733 503.327 825.733 503.327C825.733 503.327 841.119 515.45 868.395 531.069L870.26 529.904C843.684 513.818 828.297 443.18 828.297 443.18Z" fill="#F87C38"/>
<path d="M361.108 721.994C359.243 713.602 351.083 708.007 342.69 709.639L276.016 721.062C273.451 729.454 274.384 739.013 278.813 746.939C281.144 751.135 283.942 755.565 286.973 760.227L305.623 765.356C315.881 768.154 326.838 765.356 334.298 758.129L356.445 736.915C360.408 733.185 362.273 727.356 361.108 721.994Z" fill="#F87C38"/>
<path d="M453.893 806.164C452.261 806.164 450.862 805.232 450.629 803.6C450.163 801.735 451.329 799.87 453.194 799.403C520.102 781.453 523.598 739.723 523.598 737.858C523.832 735.993 525.463 734.594 527.328 734.594C529.194 734.827 530.825 736.459 530.592 738.324C530.592 740.189 527.095 786.815 454.826 806.164C454.359 806.164 454.126 806.164 453.893 806.164Z" fill="#F87C38"/>
<path d="M1212.73 1169.37L1159.57 1106.66C1086.84 1205.27 996.85 1244.91 996.85 1244.91L1024.36 1265.19L942.997 1422.08C924.347 1457.98 922.715 1500.18 938.334 1537.48L981.463 1639.83C989.39 1658.71 1010.14 1668.97 1029.95 1663.84C1044.17 1660.11 1055.36 1649.38 1059.33 1635.4L1091.5 1525.83C1098.49 1501.58 1110.38 1479.2 1126.47 1459.62L1214.13 1352.38C1257.95 1298.99 1257.25 1222.06 1212.73 1169.37Z" fill="url(#paint24_linear_2609_221)"/>
<path d="M1087.07 1274.05C1133.93 1225.32 1187.32 1210.17 1237.44 1211.8C1231.84 1196.65 1223.45 1182.19 1212.73 1169.37L1159.57 1106.66C1086.84 1205.27 996.85 1244.91 996.85 1244.91L1024.36 1265.19L942.997 1422.08C924.347 1457.98 922.715 1500.18 938.334 1537.48L946.494 1556.6C953.488 1505.08 980.997 1384.55 1087.07 1274.05Z" fill="url(#paint25_linear_2609_221)"/>
<path d="M598.899 1066.8C598.899 1066.8 588.874 1061.67 583.046 1040.92C576.752 1019.24 601.23 1007.35 615.218 1034.16C615.218 1034.16 600.997 977.044 630.138 974.712C658.58 972.381 652.985 1022.04 646.69 1036.72C646.69 1036.72 657.647 1009.22 671.868 1020.41C686.089 1031.6 672.801 1056.07 659.979 1067.5C646.923 1078.45 598.899 1066.8 598.899 1066.8Z" fill="url(#paint26_linear_2609_221)"/>
<path d="M666.972 1113.89C666.972 1113.89 672.334 1117.62 673.5 1125.54C673.966 1128.34 673.733 1131.84 672.567 1135.8C669.071 1147.69 656.948 1150.49 656.948 1150.49C656.948 1150.49 657.414 1152.12 657.414 1154.68C657.647 1162.84 655.083 1179.63 629.905 1179.63C611.022 1179.63 604.96 1170.3 603.095 1162.14C602.862 1161.21 602.862 1160.51 602.629 1159.58C601.93 1154.45 602.862 1150.25 602.862 1150.25C602.862 1150.25 590.739 1147.22 587.242 1135.57C586.543 1133.47 586.31 1131.6 586.077 1129.97C585.844 1128.34 586.077 1126.71 586.31 1125.31C587.242 1118.32 591.672 1114.58 592.604 1113.89C592.838 1113.89 592.838 1113.65 592.838 1113.65C573.954 1105.49 576.052 1091.04 576.052 1091.04C574.187 1050.47 630.138 1054.9 630.138 1054.9C630.138 1054.9 686.089 1050.47 684.224 1091.04C683.991 1091.27 685.856 1105.73 666.972 1113.89Z" fill="url(#paint27_linear_2609_221)"/>
<path d="M673.5 1125.54C670.936 1119.02 653.451 1113.89 653.451 1113.89H666.739C666.972 1113.89 672.567 1117.62 673.5 1125.54Z" fill="#F87C38"/>
<path d="M629.905 1113.89C629.905 1113.89 598.666 1115.98 586.077 1130.21C585.844 1128.57 586.077 1126.94 586.31 1125.54C587.242 1118.55 591.672 1114.82 592.604 1114.12C592.837 1114.12 592.838 1113.89 592.838 1113.89H629.905Z" fill="#F87C38"/>
<path d="M621.279 1150.73C621.279 1150.73 605.426 1152.82 602.629 1160.05C601.929 1154.92 602.862 1150.73 602.862 1150.73H621.279Z" fill="#F87C38"/>
<path d="M657.414 1154.92C654.85 1152.36 651.12 1150.73 651.12 1150.73H656.948C656.948 1150.73 657.414 1152.36 657.414 1154.92Z" fill="#F87C38"/>
<path d="M377.66 1179.87C377.66 1179.87 344.322 1136.97 332.2 1091.28C346.887 1173.57 308.421 1230.92 308.421 1230.92L377.66 1179.87Z" fill="url(#paint28_linear_2609_221)"/>
<path opacity="0.3" d="M542.948 555.785L431.979 680.975C404.236 658.128 390.715 631.552 375.095 628.987C373.23 628.754 371.365 628.521 369.5 628.521L457.156 535.27C486.764 546.693 515.905 552.754 542.948 555.785Z" fill="url(#paint29_linear_2609_221)"/>
<path opacity="0.3" d="M634.101 555.086L491.893 710.816C482.101 708.485 473.242 705.454 465.083 701.957L600.297 557.883C612.653 557.417 624.076 556.252 634.101 555.086Z" fill="url(#paint30_linear_2609_221)"/>
<path d="M885.88 725.266C780.273 742.284 750.199 832.038 750.199 832.038C794.727 796.603 839.721 754.873 902.432 752.075L885.88 725.266Z" fill="#F87C38"/>
</g>
<defs>
<linearGradient id="paint0_linear_2609_221" x1="636.245" y1="2046.54" x2="196.487" y2="848.032" gradientUnits="userSpaceOnUse">
<stop stop-color="#FF2A64"/>
<stop offset="1" stop-color="#FFAF48"/>
</linearGradient>
<linearGradient id="paint1_linear_2609_221" x1="569.164" y1="1706.85" x2="236.497" y2="945.824" gradientUnits="userSpaceOnUse">
<stop stop-color="#FF2A64"/>
<stop offset="1" stop-color="#FFAF48"/>
</linearGradient>
<linearGradient id="paint2_linear_2609_221" x1="734.385" y1="909.066" x2="126.015" y2="1626.81" gradientUnits="userSpaceOnUse">
<stop stop-color="#03192E"/>
<stop offset="0.5" stop-color="#223C6A"/>
<stop offset="1" stop-color="#4A74A2"/>
</linearGradient>
<linearGradient id="paint3_linear_2609_221" x1="639.931" y1="1525.25" x2="195.616" y2="764.221" gradientUnits="userSpaceOnUse">
<stop stop-color="#386E9F"/>
<stop offset="1" stop-color="white"/>
</linearGradient>
<linearGradient id="paint4_linear_2609_221" x1="416.497" y1="1211.52" x2="629.917" y2="1211.52" gradientUnits="userSpaceOnUse">
<stop stop-color="#002649"/>
<stop offset="0.3213" stop-color="#042A4F"/>
<stop offset="0.7475" stop-color="#0F3460"/>
<stop offset="1" stop-color="#183D6D"/>
</linearGradient>
<linearGradient id="paint5_linear_2609_221" x1="1038.22" y1="1752.22" x2="1188.6" y2="1285.12" gradientUnits="userSpaceOnUse">
<stop stop-color="#FF2A64"/>
<stop offset="1" stop-color="#FFAF48"/>
</linearGradient>
<linearGradient id="paint6_linear_2609_221" x1="1036.13" y1="2125.11" x2="1191.07" y2="1361.8" gradientUnits="userSpaceOnUse">
<stop stop-color="#FF2A64"/>
<stop offset="1" stop-color="#FFAF48"/>
</linearGradient>
<linearGradient id="paint7_linear_2609_221" x1="797.67" y1="2032.88" x2="864.507" y2="404.49" gradientUnits="userSpaceOnUse">
<stop stop-color="#03192E"/>
<stop offset="0.5" stop-color="#223C6A"/>
<stop offset="1" stop-color="#4A74A2"/>
</linearGradient>
<linearGradient id="paint8_linear_2609_221" x1="756.614" y1="946.26" x2="1169.01" y2="946.26" gradientUnits="userSpaceOnUse">
<stop stop-color="#002649"/>
<stop offset="0.3213" stop-color="#042A4F"/>
<stop offset="0.7475" stop-color="#0F3460"/>
<stop offset="1" stop-color="#183D6D"/>
</linearGradient>
<linearGradient id="paint9_linear_2609_221" x1="30.9975" y1="1565.46" x2="211.53" y2="777.473" gradientUnits="userSpaceOnUse">
<stop stop-color="#FF2A64"/>
<stop offset="1" stop-color="#FFAF48"/>
</linearGradient>
<linearGradient id="paint10_linear_2609_221" x1="784.059" y1="1679.17" x2="966.343" y2="913.58" gradientUnits="userSpaceOnUse">
<stop stop-color="#03192E"/>
<stop offset="0.5" stop-color="#223C6A"/>
<stop offset="1" stop-color="#4A74A2"/>
</linearGradient>
<linearGradient id="paint11_linear_2609_221" x1="1005.52" y1="1395.15" x2="1251.6" y2="155.624" gradientUnits="userSpaceOnUse">
<stop stop-color="#386E9F"/>
<stop offset="1" stop-color="white"/>
</linearGradient>
<linearGradient id="paint12_linear_2609_221" x1="782.018" y1="1085.43" x2="1751.16" y2="2154.82" gradientUnits="userSpaceOnUse">
<stop stop-color="#03192E"/>
<stop offset="0.5" stop-color="#223C6A"/>
<stop offset="1" stop-color="#4A74A2"/>
</linearGradient>
<linearGradient id="paint13_linear_2609_221" x1="655.949" y1="1325.75" x2="902.031" y2="86.2301" gradientUnits="userSpaceOnUse">
<stop stop-color="#386E9F"/>
<stop offset="1" stop-color="white"/>
</linearGradient>
<linearGradient id="paint14_linear_2609_221" x1="246.622" y1="805.941" x2="1206.65" y2="28.2007" gradientUnits="userSpaceOnUse">
<stop stop-color="#FF2A64"/>
<stop offset="1" stop-color="#FFAF48"/>
</linearGradient>
<linearGradient id="paint15_linear_2609_221" x1="246.403" y1="2241.64" x2="834.266" y2="596.537" gradientUnits="userSpaceOnUse">
<stop stop-color="#FF2A64"/>
<stop offset="1" stop-color="#FFAF48"/>
</linearGradient>
<linearGradient id="paint16_linear_2609_221" x1="1173.3" y1="299.146" x2="594.547" y2="839.919" gradientUnits="userSpaceOnUse">
<stop stop-color="#03192E"/>
<stop offset="0.5" stop-color="#223C6A"/>
<stop offset="1" stop-color="#4A74A2"/>
</linearGradient>
<linearGradient id="paint17_linear_2609_221" x1="792.697" y1="781.435" x2="291.419" y2="939.414" gradientUnits="userSpaceOnUse">
<stop stop-color="#386E9F"/>
<stop offset="1" stop-color="white"/>
</linearGradient>
<linearGradient id="paint18_linear_2609_221" x1="498.068" y1="768.711" x2="548.196" y2="524.907" gradientUnits="userSpaceOnUse">
<stop stop-color="#03192E"/>
<stop offset="0.5" stop-color="#223C6A"/>
<stop offset="1" stop-color="#4A74A2"/>
</linearGradient>
<linearGradient id="paint19_linear_2609_221" x1="275.024" y1="1085.58" x2="703.389" y2="286.568" gradientUnits="userSpaceOnUse">
<stop stop-color="#386E9F"/>
<stop offset="1" stop-color="white"/>
</linearGradient>
<linearGradient id="paint20_linear_2609_221" x1="672.437" y1="843.839" x2="371.67" y2="275.724" gradientUnits="userSpaceOnUse">
<stop stop-color="#386E9F"/>
<stop offset="1" stop-color="white" stop-opacity="0.5"/>
</linearGradient>
<linearGradient id="paint21_linear_2609_221" x1="716.684" y1="719.248" x2="830.611" y2="321.264" gradientUnits="userSpaceOnUse">
<stop stop-color="#03192E"/>
<stop offset="0.5" stop-color="#223C6A"/>
<stop offset="1" stop-color="#4A74A2"/>
</linearGradient>
<linearGradient id="paint22_linear_2609_221" x1="524.861" y1="932.821" x2="776.618" y2="576.28" gradientUnits="userSpaceOnUse">
<stop stop-color="#03192E"/>
<stop offset="0.5" stop-color="#223C6A"/>
<stop offset="1" stop-color="#4A74A2"/>
</linearGradient>
<linearGradient id="paint23_linear_2609_221" x1="708.655" y1="782.481" x2="804.353" y2="440.701" gradientUnits="userSpaceOnUse">
<stop stop-color="#03192E"/>
<stop offset="0.5" stop-color="#223C6A"/>
<stop offset="1" stop-color="#4A74A2"/>
</linearGradient>
<linearGradient id="paint24_linear_2609_221" x1="1376.7" y1="173.68" x2="1018.21" y2="1659.29" gradientUnits="userSpaceOnUse">
<stop stop-color="#FF2A64"/>
<stop offset="1" stop-color="#FFAF48"/>
</linearGradient>
<linearGradient id="paint25_linear_2609_221" x1="1549.47" y1="382.576" x2="847.68" y2="1755.77" gradientUnits="userSpaceOnUse">
<stop stop-color="#FF2A64"/>
<stop offset="1" stop-color="#FFAF48"/>
</linearGradient>
<linearGradient id="paint26_linear_2609_221" x1="629.916" y1="1083.34" x2="629.916" y2="800.799" gradientUnits="userSpaceOnUse">
<stop stop-color="#386E9F"/>
<stop offset="1" stop-color="white"/>
</linearGradient>
<linearGradient id="paint27_linear_2609_221" x1="657.254" y1="1604.23" x2="625.354" y2="1004.98" gradientUnits="userSpaceOnUse">
<stop stop-color="#FF2A64"/>
<stop offset="1" stop-color="#FFAF48"/>
</linearGradient>
<linearGradient id="paint28_linear_2609_221" x1="369.359" y1="1645.05" x2="323.788" y2="884.02" gradientUnits="userSpaceOnUse">
<stop stop-color="#FF2A64"/>
<stop offset="1" stop-color="#FFAF48"/>
</linearGradient>
<linearGradient id="paint29_linear_2609_221" x1="107.085" y1="1282.26" x2="492.917" y2="519.706" gradientUnits="userSpaceOnUse">
<stop stop-color="#386E9F"/>
<stop offset="1" stop-color="white"/>
</linearGradient>
<linearGradient id="paint30_linear_2609_221" x1="196.014" y1="1327.25" x2="581.847" y2="564.703" gradientUnits="userSpaceOnUse">
<stop stop-color="#386E9F"/>
<stop offset="1" stop-color="white"/>
</linearGradient>
<clipPath id="clip0_2609_221">
<rect width="1500" height="1500" fill="white"/>
</clipPath>
</defs>
</svg>
